<?xml version="1.0" encoding="utf-8"?>
<!-- Generator: Adobe Illustrator 20.0.0, SVG Export Plug-In . SVG Version: 6.00 Build 0)  -->
<svg version="1.1" id="Layer_1" xmlns="http://www.w3.org/2000/svg" xmlns:xlink="http://www.w3.org/1999/xlink" x="0px" y="0px"
	 viewBox="0 0 307.8 50" style="enable-background:new 0 0 307.8 50;" xml:space="preserve" height="50px">
<style type="text/css">
	.st0{fill:#FFFFFF;}
</style>
<title>Artboard 1</title>
<g>
	<g id="Circle">
		<path class="st0" d="M23.6,50C10.6,50,0,39.4,0,26.4c0-4.9,1.5-9.7,4.3-13.6c0.3-0.5,0.9-0.6,1.4-0.2c0.5,0.3,0.6,0.9,0.2,1.4l0,0
			c-6.9,9.7-4.6,23.2,5.2,30.1s23.2,4.6,30.1-5.2c2.6-3.6,4-8,4-12.5c0-4.5-1.4-8.8-4-12.5c-0.3-0.5-0.2-1.1,0.3-1.4
			c0.4-0.3,1-0.2,1.3,0.2c7.5,10.6,5,25.4-5.6,32.9C33.3,48.5,28.5,50,23.6,50z"/>
	</g>
	<g id="Hand">
		<path class="st0" d="M17.8,15.8c2.1-0.3,4.1-1,5.9,0.7c1.5-1.1,2.7-1.3,5.4-0.8c0.2-1.5,0.5-3,0.7-4.6c0.4-2.8,0.8-5.7,1.2-8.5
			C31.2,0.8,32.4,0,34.8,0c2.3,0,3.5,1.4,3.3,3.7c-0.1,0.8-0.1,1.6-0.2,2.5c-0.5,6.8-1.1,13.6-1.5,20.4c-0.1,2,0,4-0.1,6
			c-0.3,4.7-3,7.8-7.9,9.1C23,43,18,42,13.2,39.5c-0.9-0.5-1.3-1.2-1.4-2.2c-0.5-6.3-1-12.7-1.5-19C10,14.8,9.6,11.3,9.1,7.9
			c-0.2-1.3,0.8-2.7,2.1-3c0.1,0,0.3,0,0.4,0c3.5-0.2,4.1,0.2,4.8,3.7c0.4,2.2,0.8,4.3,1.2,6.5C17.7,15.3,17.8,15.6,17.8,15.8z
			 M23.3,29c-0.1,0.1-0.3,0.1-0.5,0.2c-3.9,1-6.3,0.2-6.1-3.9c0.2-3.7,0.3-7.5-0.6-11.2c-0.5-1.9-0.7-4-1.2-5.9
			c-0.2-0.7-0.7-1.7-1.3-1.9c-1.9-0.4-3.6-0.1-3.3,2.7c0.4,3.5,0.9,6.9,1.3,10.4c0.6,5.5,1.1,11,1.6,16.6c0.1,1.5,0.8,2.3,2.2,2.7
			c3.5,1.1,7,1.7,10.7,1.4c2.6-0.2,5.1-0.9,6.8-2.9c2.2-2.7,2.6-4.6,0.3-7.1c-1.3-1.4-2.4-2.9-3.6-4.4c-1-1.3-2-2.6-3.1-3.8
			c-1.2-1.3-2.2-1.3-3.5,0c-0.7,0.7-0.9,1.7-0.3,2.6c1.1,1.9,2.4,3.7,3.6,5.6c0.4,0.6,0.8,0.7,1.5,0.4c1.4-0.6,2.3-0.4,3.2,0.8
			c-1.9-0.4-3.3,0.3-4.5,1.6c-1.3,1.5-0.5,3.1-0.3,4.8c-1.5-1.2-1.9-3.5-1-5.2c0.2-0.3,0.3-0.8,0.1-1C24.6,30.5,23.9,29.8,23.3,29
			L23.3,29z M34.7,29.2l0.3-0.1c0-0.6,0-1.2,0-1.8c0.2-3.1,0.3-6.2,0.6-9.3c0.4-4.6,0.9-9.3,1.3-13.9c0.2-1.8-0.8-2.9-2.3-2.9
			c-1.2,0-1.9,0.8-2.1,2.3c-0.2,1.6-0.4,3.2-0.6,4.8c-0.6,5.1-1.5,10.2-1.2,15.3c0,0.4,0,1,0.2,1.3C32.1,26.5,33.4,27.8,34.7,29.2
			L34.7,29.2z M22.2,27.8c-0.4-1-0.8-1.9-1.1-2.9c-0.5-2,0-3.2,1.6-4.3c0.2-0.1,0.4-0.3,0.4-0.5c0-1,0.1-2.3-1-2.8
			c-0.9-0.4-2-0.5-3-0.2c-1,0.3-1.2,1.4-1.2,2.4c0,2,0.1,4.1,0,6.1C18,27.7,19.4,29,22.2,27.8L22.2,27.8z M29.1,23.1
			c0-0.3,0.1-0.5,0.1-0.6c0-1.2,0-2.3,0-3.5c-0.1-1.7-1.1-2.4-2.8-2.2c-1.6,0.2-2.2,1.1-1.8,2.9C26.9,19.6,27.6,21.7,29.1,23.1
			L29.1,23.1z"/>
	</g>
</g>
<g>
	<path class="st0" d="M81.6,32.6c0,3.6-0.8,6.2-2.5,7.8c-1.7,1.6-4.3,2.3-7.8,2.3c-1.8,0-3.3-0.2-4.5-0.7c-1.2-0.5-2.1-1.2-2.8-2.1
		c-0.7-0.9-1.2-2-1.4-3.2c-0.3-1.2-0.4-2.5-0.4-3.8v-1.5h6.3v1.1c0,1.8,0.2,3.2,0.6,4.1c0.4,0.9,1.2,1.3,2.5,1.3s2.1-0.4,2.5-1.3
		c0.4-0.9,0.6-2.2,0.6-4.1V7.9h6.9V32.6z"/>
	<path class="st0" d="M85.9,23.6c0-1.5,0.2-2.8,0.7-3.8c0.5-1,1.1-1.8,1.9-2.4c0.8-0.6,1.8-1.1,2.9-1.3c1.1-0.3,2.3-0.4,3.5-0.4
		c2,0,3.6,0.2,4.8,0.6c1.2,0.4,2.2,0.9,2.8,1.6c0.7,0.7,1.1,1.5,1.4,2.5c0.2,1,0.4,2,0.4,3.2v13.6c0,1.2,0.1,2.2,0.2,2.8
		c0.1,0.7,0.3,1.4,0.6,2.2h-6.3c-0.2-0.4-0.4-0.9-0.5-1.3c-0.1-0.5-0.2-0.9-0.3-1.4h-0.1c-0.8,1.3-1.7,2.2-2.7,2.6
		c-1,0.4-2.3,0.6-3.9,0.6c-1.2,0-2.1-0.2-2.9-0.6c-0.8-0.4-1.4-1-1.9-1.7c-0.5-0.7-0.8-1.5-1.1-2.4c-0.2-0.9-0.3-1.8-0.3-2.6
		c0-1.2,0.1-2.3,0.4-3.1c0.3-0.9,0.6-1.6,1.2-2.3c0.5-0.6,1.2-1.1,2-1.6c0.8-0.4,1.8-0.8,3-1.1l3.7-1c1-0.3,1.7-0.6,2.1-1.1
		c0.4-0.4,0.6-1.1,0.6-2c0-1-0.2-1.8-0.7-2.3c-0.5-0.6-1.3-0.8-2.4-0.8c-1,0-1.8,0.3-2.3,0.9s-0.8,1.4-0.8,2.4v0.7h-6V23.6z
		 M96.5,30.1c-0.5,0.2-1,0.4-1.4,0.5c-1.3,0.3-2.3,0.8-2.9,1.4c-0.6,0.7-0.9,1.6-0.9,2.7c0,1,0.2,1.8,0.6,2.5c0.4,0.7,1,1.1,1.9,1.1
		c0.4,0,0.9-0.1,1.4-0.2c0.5-0.1,0.9-0.4,1.3-0.7c0.4-0.3,0.7-0.7,1-1.2c0.3-0.5,0.4-1.1,0.4-1.8v-5.1
		C97.5,29.6,97.1,29.9,96.5,30.1z"/>
	<path class="st0" d="M115.4,16.3V19h0.1c0.8-1.2,1.8-2,2.8-2.5c1-0.5,2.3-0.8,3.7-0.8c1.5,0,2.8,0.4,3.9,1.1c1,0.7,1.7,1.7,2.1,3.1
		h0.1c0.5-1.4,1.3-2.4,2.5-3.1c1.1-0.7,2.5-1,4.1-1c2.2,0,3.8,0.7,4.9,2c1,1.3,1.6,3.2,1.6,5.7v18.8h-6.6v-18c0-1.1-0.2-1.9-0.6-2.5
		c-0.4-0.6-1.1-0.9-2-0.9c-1.1,0-1.9,0.4-2.5,1.1c-0.6,0.7-0.9,1.8-0.9,3.4v17h-6.6v-18c0-1.1-0.2-1.9-0.6-2.5
		c-0.4-0.6-1.1-0.9-2-0.9c-1.1,0-1.9,0.4-2.5,1.1c-0.6,0.7-0.9,1.8-0.9,3.4v17H109V16.3H115.4z"/>
	<path class="st0" d="M173.3,34.5c-0.8,1.7-1.8,3.2-3.1,4.5c-1.3,1.2-2.8,2.2-4.5,2.9c-1.7,0.7-3.7,1.1-5.9,1.1
		c-2.3,0-4.4-0.4-6.3-1.3c-1.9-0.9-3.5-2.1-4.9-3.6c-1.4-1.6-2.4-3.4-3.2-5.6c-0.8-2.2-1.2-4.5-1.2-7.1c0-2.1,0.3-4.2,0.9-6.4
		c0.6-2.2,1.5-4.1,2.8-5.9c1.3-1.8,2.9-3.2,5-4.3c2-1.1,4.5-1.7,7.4-1.7c2.3,0,4.3,0.4,6,1.1c1.7,0.8,3.1,1.7,4.2,2.8
		c1.1,1.1,2,2.3,2.6,3.6c0.6,1.3,0.9,2.4,0.9,3.5h-1c-0.1-1.2-0.5-2.5-1.1-3.7c-0.6-1.2-1.5-2.3-2.6-3.2c-1.1-1-2.4-1.7-3.9-2.3
		c-1.5-0.6-3.2-0.9-5.1-0.9c-2.8,0-5.2,0.6-7.1,1.7c-1.9,1.1-3.5,2.6-4.7,4.3c-1.2,1.7-2,3.6-2.6,5.6s-0.8,3.9-0.8,5.7
		c0,2.2,0.3,4.3,1,6.3c0.6,2,1.6,3.8,2.8,5.3s2.8,2.8,4.6,3.7c1.8,0.9,3.9,1.4,6.2,1.4c2,0,3.9-0.3,5.5-1c1.6-0.7,3-1.6,4.2-2.8
		c1.2-1.2,2.1-2.6,2.9-4.2c0.7-1.6,1.2-3.4,1.5-5.3h1C174.7,30.8,174.1,32.7,173.3,34.5z"/>
	<path class="st0" d="M178.1,25c0.5-1.6,1.2-2.9,2.1-4.1c0.9-1.2,2.1-2.1,3.5-2.9c1.4-0.7,3-1.1,4.8-1.1c1.8,0,3.4,0.4,4.8,1.1
		c1.4,0.7,2.5,1.7,3.5,2.9c0.9,1.2,1.7,2.6,2.1,4.1c0.5,1.6,0.7,3.2,0.7,4.9c0,1.7-0.2,3.3-0.7,4.9c-0.5,1.6-1.2,2.9-2.1,4.1
		c-0.9,1.2-2.1,2.1-3.5,2.8c-1.4,0.7-3,1.1-4.8,1.1c-1.8,0-3.4-0.4-4.8-1.1c-1.4-0.7-2.5-1.6-3.5-2.8c-0.9-1.2-1.7-2.6-2.1-4.1
		c-0.5-1.6-0.7-3.2-0.7-4.9C177.4,28.1,177.7,26.5,178.1,25z M179,34.3c0.4,1.4,1.1,2.7,1.9,3.8c0.9,1.1,1.9,2,3.2,2.6
		c1.3,0.7,2.7,1,4.4,1c1.6,0,3.1-0.3,4.3-1c1.3-0.7,2.3-1.5,3.2-2.6c0.9-1.1,1.5-2.4,1.9-3.8c0.4-1.4,0.6-2.9,0.6-4.5
		c0-1.5-0.2-3-0.6-4.5c-0.4-1.4-1.1-2.7-1.9-3.8c-0.9-1.1-1.9-2-3.2-2.7c-1.3-0.7-2.7-1-4.3-1c-1.7,0-3.1,0.3-4.4,1
		c-1.3,0.7-2.3,1.6-3.2,2.7c-0.9,1.1-1.5,2.4-1.9,3.8c-0.4,1.4-0.6,2.9-0.6,4.5C178.4,31.4,178.6,32.9,179,34.3z"/>
	<path class="st0" d="M204.6,17.5v6.1h0.1c0.2-1,0.6-1.8,1.1-2.6c0.5-0.8,1.1-1.5,1.9-2.1c0.8-0.6,1.6-1.1,2.6-1.4s2.1-0.5,3.3-0.5
		c1.3,0,2.5,0.2,3.5,0.6c1.1,0.4,2,1,2.8,1.7s1.4,1.7,1.8,2.8s0.6,2.4,0.6,3.8v16.4h-1V25.9c0-1.4-0.2-2.7-0.6-3.7
		c-0.4-1-1-1.8-1.7-2.5c-0.7-0.7-1.6-1.1-2.5-1.4c-0.9-0.3-1.9-0.5-3-0.5c-1.5,0-2.8,0.3-3.9,0.8c-1.1,0.6-2.1,1.3-2.8,2.3
		c-0.8,0.9-1.3,2-1.7,3.3s-0.6,2.6-0.6,3.9v14h-1V17.5H204.6z"/>
	<path class="st0" d="M228.6,17.5v6.1h0.1c0.2-1,0.6-1.8,1.1-2.6c0.5-0.8,1.1-1.5,1.9-2.1c0.8-0.6,1.6-1.1,2.6-1.4s2.1-0.5,3.3-0.5
		c1.3,0,2.5,0.2,3.5,0.6c1.1,0.4,2,1,2.8,1.7s1.4,1.7,1.8,2.8s0.6,2.4,0.6,3.8v16.4h-1V25.9c0-1.4-0.2-2.7-0.6-3.7
		c-0.4-1-1-1.8-1.7-2.5c-0.7-0.7-1.6-1.1-2.5-1.4c-0.9-0.3-1.9-0.5-3-0.5c-1.5,0-2.8,0.3-3.9,0.8c-1.1,0.6-2.1,1.3-2.8,2.3
		c-0.8,0.9-1.3,2-1.7,3.3s-0.6,2.6-0.6,3.9v14h-1V17.5H228.6z"/>
	<path class="st0" d="M251.8,34.6c0.4,1.4,0.9,2.7,1.7,3.7c0.8,1.1,1.8,1.9,3,2.5c1.2,0.6,2.7,0.9,4.5,0.9c2.6,0,4.7-0.7,6.5-2
		c1.7-1.4,2.8-3.4,3.2-6.1h1c-0.4,2.9-1.5,5.1-3.4,6.7c-1.9,1.6-4.3,2.4-7.1,2.4c-1.9,0-3.6-0.3-4.9-0.9c-1.4-0.6-2.5-1.5-3.3-2.7
		c-0.9-1.2-1.5-2.5-1.9-4.1c-0.4-1.6-0.6-3.3-0.6-5.1c0-2,0.3-3.9,0.9-5.5c0.6-1.6,1.4-3,2.4-4.1s2.1-1.9,3.5-2.5
		c1.3-0.6,2.7-0.9,4-0.9c1.9,0,3.6,0.4,5,1.1c1.4,0.7,2.5,1.7,3.4,2.9c0.9,1.2,1.5,2.6,1.9,4.2c0.4,1.6,0.6,3.2,0.5,4.9h-20.6
		C251.2,31.7,251.4,33.2,251.8,34.6z M270.2,24.8c-0.4-1.4-1-2.6-1.8-3.6c-0.8-1-1.8-1.8-3-2.4c-1.2-0.6-2.6-0.9-4.2-0.9
		c-1.3,0-2.6,0.3-3.8,0.8c-1.2,0.5-2.2,1.3-3.1,2.2c-0.9,1-1.6,2.2-2.1,3.5c-0.5,1.4-0.9,2.9-1,4.7h19.7
		C270.8,27.6,270.6,26.1,270.2,24.8z"/>
	<path class="st0" d="M294.5,37.5c-0.5,1.1-1.3,2-2.1,2.8c-0.9,0.8-1.9,1.4-3.1,1.8s-2.5,0.6-3.9,0.6c-1.8,0-3.3-0.3-4.7-1
		c-1.4-0.7-2.5-1.5-3.4-2.7c-0.9-1.1-1.6-2.4-2.1-3.9c-0.5-1.5-0.7-3.1-0.7-4.8c0-1.8,0.2-3.5,0.7-5.1c0.5-1.6,1.2-3,2.1-4.3
		c0.9-1.2,2.1-2.2,3.6-3c1.5-0.7,3.2-1.1,5.1-1.1c1.2,0,2.3,0.2,3.3,0.5c1.1,0.4,2,0.9,2.8,1.5c0.8,0.7,1.5,1.5,2.1,2.5
		c0.6,1,0.9,2.2,1.1,3.5h-1c-0.2-1.2-0.5-2.3-1.1-3.1c-0.5-0.9-1.1-1.6-1.9-2.2c-0.7-0.6-1.6-1-2.5-1.3s-1.9-0.4-2.9-0.4
		c-2,0-3.6,0.4-5,1.1c-1.4,0.8-2.4,1.7-3.3,2.9c-0.8,1.2-1.4,2.5-1.8,4c-0.4,1.5-0.6,3-0.6,4.4c0,1.5,0.2,2.9,0.6,4.3
		c0.4,1.4,1.1,2.6,1.9,3.6c0.8,1.1,1.9,1.9,3.1,2.5s2.7,0.9,4.3,0.9c1.2,0,2.4-0.2,3.4-0.6c1.1-0.4,2-0.9,2.8-1.6
		c0.8-0.7,1.5-1.5,2-2.5c0.5-1,0.8-2.1,0.9-3.3h1C295.4,35.1,295,36.4,294.5,37.5z"/>
	<path class="st0" d="M302.3,37.4c0,0.9,0.1,1.6,0.3,2.2c0.2,0.5,0.5,0.9,0.8,1.2c0.3,0.3,0.7,0.4,1.1,0.5c0.4,0,0.8,0.1,1.2,0.1
		c0.5,0,0.9,0,1.3,0c0.4,0,0.7-0.1,0.8-0.1v1c-0.3,0-0.6,0.1-0.8,0.1c-0.3,0-0.8,0-1.5,0c-1.1,0-2.1-0.3-2.9-1
		c-0.8-0.7-1.2-1.9-1.2-3.6V18.4h-4.5v-1h4.5V9.7h1v7.8h5.6v1h-5.6V37.4z"/>
</g>
</svg>
